<svg xmlns="http://www.w3.org/2000/svg" xmlns:xlink="http://www.w3.org/1999/xlink" width="2000" zoomAndPan="magnify" viewBox="0 0 1500 1499.999933" height="2000" preserveAspectRatio="xMidYMid meet" version="1.0"><defs><g/><clipPath id="ad4cff72a3"><path d="M 13.617188 210.671875 L 1486.617188 210.671875 L 1486.617188 1319 L 13.617188 1319 Z M 13.617188 210.671875 " clip-rule="nonzero"/></clipPath><clipPath id="88d385e260"><rect x="0" width="569" y="0" height="1116"/></clipPath></defs><g clip-path="url(#ad4cff72a3)"><path fill="#b30505" d="M 750.148438 210.769531 C 523.90625 210.769531 352.347656 282.167969 233.582031 369.214844 C 114.820312 456.257812 48.628906 554.589844 19.765625 622.582031 C 18.734375 625.007812 17.832031 627.476562 17.058594 629.992188 C 16.285156 632.507812 15.640625 635.058594 15.125 637.640625 C 14.613281 640.222656 14.234375 642.824219 13.992188 645.445312 C 13.746094 648.066406 13.636719 650.695312 13.660156 653.328125 C 13.6875 655.960938 13.847656 658.585938 14.144531 661.199219 C 14.441406 663.816406 14.871094 666.410156 15.433594 668.984375 C 15.996094 671.554688 16.691406 674.089844 17.515625 676.59375 C 18.339844 679.09375 19.289062 681.542969 20.363281 683.949219 C 40.898438 729.628906 88 787.949219 149.328125 846.707031 L 46.492188 971.835938 C 45.648438 972.796875 44.828125 973.78125 44.035156 974.785156 C 43.238281 975.789062 42.46875 976.8125 41.726562 977.855469 C 40.980469 978.894531 40.265625 979.957031 39.574219 981.035156 C 38.882812 982.113281 38.21875 983.207031 37.582031 984.320312 C 36.949219 985.429688 36.339844 986.558594 35.761719 987.699219 C 35.179688 988.839844 34.628906 989.996094 34.109375 991.167969 C 33.585938 992.335938 33.09375 993.519531 32.632812 994.710938 C 32.171875 995.90625 31.738281 997.113281 31.335938 998.328125 C 30.933594 999.542969 30.5625 1000.769531 30.222656 1002.003906 C 29.882812 1003.238281 29.570312 1004.480469 29.292969 1005.730469 C 29.015625 1006.980469 28.765625 1008.234375 28.550781 1009.496094 C 28.335938 1010.761719 28.152344 1012.027344 28 1013.296875 C 27.847656 1014.570312 27.726562 1015.84375 27.640625 1017.121094 C 27.550781 1018.398438 27.496094 1019.679688 27.46875 1020.957031 C 27.445312 1022.238281 27.453125 1023.519531 27.492188 1024.800781 C 27.535156 1026.078125 27.605469 1027.359375 27.710938 1028.632812 C 27.8125 1029.910156 27.949219 1031.183594 28.117188 1032.453125 C 28.285156 1033.722656 28.484375 1034.988281 28.714844 1036.246094 C 28.945312 1037.507812 29.207031 1038.757812 29.5 1040.003906 C 29.792969 1041.25 30.121094 1042.488281 30.476562 1043.71875 C 30.832031 1044.949219 31.214844 1046.171875 31.632812 1047.382812 C 32.050781 1048.59375 32.496094 1049.792969 32.972656 1050.980469 C 33.449219 1052.167969 33.957031 1053.34375 34.492188 1054.507812 C 35.027344 1055.671875 35.59375 1056.820312 36.1875 1057.957031 C 36.78125 1059.089844 37.402344 1060.210938 38.050781 1061.3125 C 38.699219 1062.417969 39.375 1063.503906 40.082031 1064.574219 C 40.785156 1065.644531 41.515625 1066.695312 42.269531 1067.726562 C 43.027344 1068.761719 43.808594 1069.773438 44.617188 1070.769531 C 45.421875 1071.761719 46.253906 1072.738281 47.109375 1073.691406 C 47.964844 1074.640625 48.847656 1075.570312 49.75 1076.480469 C 50.652344 1077.390625 51.574219 1078.273438 52.523438 1079.136719 C 53.46875 1080 54.4375 1080.835938 55.425781 1081.652344 C 56.414062 1082.464844 57.421875 1083.253906 58.453125 1084.015625 C 59.480469 1084.777344 60.527344 1085.515625 61.59375 1086.226562 C 62.65625 1086.9375 63.738281 1087.621094 64.839844 1088.277344 C 65.9375 1088.933594 67.054688 1089.5625 68.183594 1090.164062 C 69.316406 1090.765625 70.460938 1091.335938 71.621094 1091.878906 C 72.78125 1092.421875 73.953125 1092.9375 75.136719 1093.421875 C 76.324219 1093.90625 77.519531 1094.359375 78.726562 1094.785156 C 79.9375 1095.210938 81.152344 1095.605469 82.382812 1095.96875 C 83.609375 1096.332031 84.847656 1096.664062 86.089844 1096.964844 C 87.335938 1097.269531 88.585938 1097.539062 89.84375 1097.777344 C 91.101562 1098.015625 92.367188 1098.226562 93.632812 1098.402344 C 94.902344 1098.578125 96.175781 1098.71875 97.449219 1098.832031 C 98.726562 1098.945312 100.003906 1099.023438 101.28125 1099.074219 C 102.5625 1099.121094 103.84375 1099.136719 105.125 1099.121094 C 106.402344 1099.105469 107.683594 1099.058594 108.960938 1098.976562 C 110.238281 1098.898438 111.515625 1098.785156 112.785156 1098.640625 C 114.058594 1098.5 115.328125 1098.324219 116.589844 1098.117188 C 117.855469 1097.90625 119.113281 1097.667969 120.363281 1097.398438 C 121.617188 1097.128906 122.859375 1096.828125 124.097656 1096.496094 C 125.332031 1096.160156 126.5625 1095.796875 127.78125 1095.40625 C 128.996094 1095.011719 130.207031 1094.585938 131.402344 1094.132812 C 132.601562 1093.675781 133.785156 1093.191406 134.957031 1092.679688 C 136.132812 1092.164062 137.289062 1091.621094 138.4375 1091.050781 C 139.582031 1090.476562 140.710938 1089.878906 141.828125 1089.25 C 142.945312 1088.621094 144.042969 1087.964844 145.125 1087.28125 C 146.207031 1086.597656 147.273438 1085.886719 148.320312 1085.148438 C 149.367188 1084.410156 150.394531 1083.648438 151.40625 1082.859375 C 152.414062 1082.074219 153.402344 1081.257812 154.371094 1080.421875 C 155.339844 1079.582031 156.285156 1078.722656 157.210938 1077.835938 C 158.136719 1076.949219 159.039062 1076.042969 159.917969 1075.113281 C 160.796875 1074.179688 161.65625 1073.230469 162.488281 1072.253906 C 163.316406 1071.28125 164.125 1070.289062 164.90625 1069.273438 L 270.859375 940.671875 C 288.644531 951.6875 311.796875 959.800781 331.625 969.917969 L 248.085938 1127.164062 C 247.496094 1128.273438 246.9375 1129.394531 246.402344 1130.53125 C 245.871094 1131.667969 245.363281 1132.820312 244.886719 1133.980469 C 244.410156 1135.140625 243.960938 1136.316406 243.542969 1137.496094 C 243.125 1138.679688 242.734375 1139.875 242.375 1141.078125 C 242.011719 1142.28125 241.679688 1143.492188 241.378906 1144.710938 C 241.078125 1145.929688 240.808594 1147.15625 240.566406 1148.386719 C 240.324219 1149.617188 240.113281 1150.855469 239.933594 1152.097656 C 239.753906 1153.339844 239.605469 1154.585938 239.484375 1155.835938 C 239.367188 1157.085938 239.277344 1158.339844 239.21875 1159.59375 C 239.164062 1160.847656 239.136719 1162.105469 239.140625 1163.359375 C 239.144531 1164.613281 239.179688 1165.871094 239.242188 1167.125 C 239.308594 1168.378906 239.40625 1169.628906 239.53125 1170.878906 C 239.660156 1172.128906 239.816406 1173.371094 240.003906 1174.613281 C 240.191406 1175.855469 240.410156 1177.09375 240.660156 1178.324219 C 240.910156 1179.554688 241.1875 1180.777344 241.496094 1181.996094 C 241.804688 1183.210938 242.144531 1184.421875 242.511719 1185.621094 C 242.878906 1186.820312 243.277344 1188.011719 243.703125 1189.191406 C 244.132812 1190.375 244.585938 1191.542969 245.070312 1192.703125 C 245.554688 1193.859375 246.066406 1195.007812 246.609375 1196.140625 C 247.148438 1197.273438 247.714844 1198.390625 248.3125 1199.496094 C 248.90625 1200.605469 249.527344 1201.695312 250.179688 1202.769531 C 250.828125 1203.84375 251.5 1204.902344 252.203125 1205.945312 C 252.902344 1206.984375 253.628906 1208.011719 254.378906 1209.015625 C 255.132812 1210.023438 255.90625 1211.007812 256.707031 1211.976562 C 257.507812 1212.945312 258.328125 1213.894531 259.175781 1214.820312 C 260.019531 1215.75 260.890625 1216.65625 261.78125 1217.539062 C 262.671875 1218.425781 263.582031 1219.289062 264.515625 1220.128906 C 265.449219 1220.96875 266.402344 1221.785156 267.375 1222.578125 C 268.347656 1223.375 269.339844 1224.140625 270.351562 1224.886719 C 271.363281 1225.632812 272.390625 1226.351562 273.4375 1227.046875 C 274.484375 1227.742188 275.546875 1228.410156 276.625 1229.050781 C 277.703125 1229.691406 278.796875 1230.308594 279.90625 1230.898438 C 281.015625 1231.484375 282.140625 1232.046875 283.277344 1232.578125 C 284.414062 1233.113281 285.5625 1233.617188 286.722656 1234.09375 C 287.882812 1234.570312 289.058594 1235.019531 290.242188 1235.4375 C 291.425781 1235.859375 292.617188 1236.25 293.820312 1236.609375 C 295.023438 1236.96875 296.234375 1237.300781 297.453125 1237.601562 C 298.671875 1237.902344 299.898438 1238.175781 301.128906 1238.414062 C 302.363281 1238.65625 303.597656 1238.867188 304.84375 1239.046875 C 306.085938 1239.226562 307.332031 1239.378906 308.582031 1239.496094 C 309.832031 1239.617188 311.082031 1239.703125 312.335938 1239.761719 C 313.589844 1239.820312 314.847656 1239.847656 316.101562 1239.84375 C 317.359375 1239.839844 318.613281 1239.804688 319.867188 1239.738281 C 321.121094 1239.671875 322.371094 1239.578125 323.621094 1239.449219 C 324.871094 1239.324219 326.117188 1239.164062 327.355469 1238.976562 C 328.597656 1238.789062 329.835938 1238.570312 331.066406 1238.320312 C 332.296875 1238.074219 333.519531 1237.792969 334.738281 1237.484375 C 335.953125 1237.175781 337.164062 1236.839844 338.363281 1236.46875 C 339.5625 1236.101562 340.753906 1235.703125 341.933594 1235.277344 C 343.117188 1234.851562 344.285156 1234.394531 345.445312 1233.910156 C 346.601562 1233.425781 347.75 1232.914062 348.882812 1232.375 C 350.015625 1231.832031 351.136719 1231.265625 352.242188 1230.671875 C 353.347656 1230.074219 354.4375 1229.453125 355.511719 1228.804688 C 356.585938 1228.15625 357.644531 1227.480469 358.6875 1226.78125 C 359.730469 1226.078125 360.753906 1225.351562 361.757812 1224.601562 C 362.765625 1223.851562 363.753906 1223.074219 364.71875 1222.277344 C 365.6875 1221.476562 366.636719 1220.652344 367.5625 1219.808594 C 368.492188 1218.960938 369.398438 1218.09375 370.285156 1217.203125 C 371.167969 1216.3125 372.03125 1215.398438 372.871094 1214.464844 C 373.710938 1213.535156 374.527344 1212.582031 375.324219 1211.605469 C 376.117188 1210.632812 376.886719 1209.640625 377.628906 1208.632812 C 378.375 1207.621094 379.09375 1206.59375 379.789062 1205.546875 C 380.484375 1204.5 381.152344 1203.4375 381.792969 1202.359375 C 382.4375 1201.277344 383.050781 1200.183594 383.640625 1199.074219 L 472.808594 1031.160156 C 500.515625 1039.214844 536.621094 1039.230469 567.015625 1044.945312 L 522.429688 1221.007812 C 522.113281 1222.230469 521.828125 1223.457031 521.574219 1224.6875 C 521.316406 1225.921875 521.09375 1227.160156 520.898438 1228.40625 C 520.703125 1229.652344 520.539062 1230.902344 520.40625 1232.152344 C 520.273438 1233.40625 520.171875 1234.664062 520.101562 1235.921875 C 520.03125 1237.179688 519.992188 1238.4375 519.980469 1239.695312 C 519.972656 1240.957031 519.996094 1242.214844 520.046875 1243.472656 C 520.101562 1244.734375 520.183594 1245.992188 520.300781 1247.246094 C 520.414062 1248.5 520.5625 1249.75 520.738281 1251 C 520.914062 1252.246094 521.121094 1253.488281 521.359375 1254.726562 C 521.597656 1255.960938 521.867188 1257.191406 522.164062 1258.417969 C 522.460938 1259.640625 522.792969 1260.855469 523.148438 1262.066406 C 523.507812 1263.273438 523.894531 1264.472656 524.3125 1265.660156 C 524.730469 1266.847656 525.175781 1268.027344 525.652344 1269.195312 C 526.128906 1270.359375 526.632812 1271.515625 527.164062 1272.65625 C 527.695312 1273.796875 528.257812 1274.925781 528.84375 1276.039062 C 529.433594 1277.15625 530.046875 1278.253906 530.691406 1279.339844 C 531.332031 1280.421875 532 1281.488281 532.695312 1282.539062 C 533.390625 1283.59375 534.109375 1284.625 534.855469 1285.640625 C 535.601562 1286.65625 536.371094 1287.652344 537.167969 1288.628906 C 537.960938 1289.609375 538.78125 1290.566406 539.621094 1291.503906 C 540.464844 1292.441406 541.328125 1293.355469 542.214844 1294.25 C 543.101562 1295.144531 544.011719 1296.019531 544.941406 1296.867188 C 545.871094 1297.71875 546.820312 1298.542969 547.792969 1299.347656 C 548.761719 1300.152344 549.753906 1300.929688 550.761719 1301.683594 C 551.773438 1302.4375 552.796875 1303.167969 553.84375 1303.871094 C 554.890625 1304.574219 555.949219 1305.253906 557.027344 1305.902344 C 558.105469 1306.554688 559.203125 1307.179688 560.308594 1307.777344 C 561.417969 1308.375 562.542969 1308.945312 563.679688 1309.488281 C 564.816406 1310.03125 565.96875 1310.542969 567.128906 1311.027344 C 568.292969 1311.515625 569.464844 1311.972656 570.652344 1312.398438 C 571.835938 1312.828125 573.03125 1313.226562 574.238281 1313.59375 C 575.441406 1313.960938 576.65625 1314.300781 577.875 1314.609375 C 579.097656 1314.917969 580.324219 1315.199219 581.5625 1315.445312 C 582.796875 1315.695312 584.035156 1315.914062 585.28125 1316.101562 C 586.527344 1316.289062 587.777344 1316.445312 589.03125 1316.570312 C 590.285156 1316.695312 591.542969 1316.792969 592.800781 1316.855469 C 594.058594 1316.917969 595.316406 1316.953125 596.578125 1316.953125 C 597.835938 1316.957031 599.097656 1316.925781 600.355469 1316.867188 C 601.613281 1316.804688 602.871094 1316.714844 604.125 1316.59375 C 605.378906 1316.472656 606.628906 1316.320312 607.875 1316.136719 C 609.121094 1315.949219 610.363281 1315.738281 611.597656 1315.492188 C 612.832031 1315.246094 614.0625 1314.972656 615.285156 1314.667969 C 616.507812 1314.363281 617.722656 1314.027344 618.925781 1313.660156 C 620.132812 1313.296875 621.328125 1312.902344 622.515625 1312.476562 C 623.703125 1312.054688 624.878906 1311.601562 626.042969 1311.117188 C 627.207031 1310.636719 628.355469 1310.125 629.496094 1309.585938 C 630.636719 1309.046875 631.761719 1308.480469 632.871094 1307.886719 C 633.980469 1307.292969 635.078125 1306.671875 636.160156 1306.023438 C 637.238281 1305.375 638.300781 1304.703125 639.351562 1304 C 640.398438 1303.300781 641.425781 1302.574219 642.4375 1301.824219 C 643.449219 1301.070312 644.441406 1300.296875 645.414062 1299.496094 C 646.386719 1298.695312 647.339844 1297.871094 648.273438 1297.023438 C 649.207031 1296.175781 650.117188 1295.308594 651.007812 1294.414062 C 651.898438 1293.523438 652.765625 1292.609375 653.609375 1291.675781 C 654.453125 1290.742188 655.273438 1289.785156 656.074219 1288.8125 C 656.871094 1287.835938 657.644531 1286.839844 658.390625 1285.828125 C 659.140625 1284.8125 659.863281 1283.785156 660.5625 1282.734375 C 661.261719 1281.683594 661.933594 1280.621094 662.578125 1279.539062 C 663.222656 1278.457031 663.839844 1277.359375 664.433594 1276.246094 C 665.023438 1275.132812 665.585938 1274.007812 666.125 1272.867188 C 666.660156 1271.726562 667.167969 1270.574219 667.644531 1269.40625 C 668.125 1268.242188 668.574219 1267.066406 668.996094 1265.878906 C 669.417969 1264.691406 669.808594 1263.496094 670.171875 1262.289062 C 670.53125 1261.082031 670.863281 1259.867188 671.167969 1258.644531 L 719.585938 1067.238281 C 730.875 1067.582031 738.574219 1071.671875 750.148438 1071.671875 C 761.640625 1071.671875 769.269531 1067.578125 780.472656 1067.238281 L 828.652344 1258.523438 C 828.929688 1259.769531 829.238281 1261.011719 829.578125 1262.242188 C 829.914062 1263.476562 830.285156 1264.699219 830.683594 1265.914062 C 831.082031 1267.125 831.511719 1268.328125 831.972656 1269.523438 C 832.433594 1270.714844 832.921875 1271.894531 833.441406 1273.0625 C 833.960938 1274.230469 834.507812 1275.386719 835.082031 1276.527344 C 835.660156 1277.667969 836.265625 1278.792969 836.898438 1279.902344 C 837.53125 1281.011719 838.191406 1282.105469 838.878906 1283.183594 C 839.566406 1284.261719 840.277344 1285.320312 841.019531 1286.363281 C 841.757812 1287.40625 842.523438 1288.425781 843.316406 1289.429688 C 844.109375 1290.433594 844.925781 1291.417969 845.765625 1292.378906 C 846.605469 1293.34375 847.46875 1294.285156 848.355469 1295.203125 C 849.246094 1296.121094 850.15625 1297.019531 851.085938 1297.894531 C 852.019531 1298.765625 852.972656 1299.617188 853.949219 1300.445312 C 854.921875 1301.269531 855.917969 1302.070312 856.933594 1302.847656 C 857.949219 1303.625 858.980469 1304.375 860.035156 1305.101562 C 861.085938 1305.824219 862.15625 1306.523438 863.242188 1307.195312 C 864.332031 1307.867188 865.433594 1308.511719 866.554688 1309.128906 C 867.675781 1309.742188 868.808594 1310.332031 869.957031 1310.890625 C 871.105469 1311.449219 872.269531 1311.980469 873.445312 1312.484375 C 874.621094 1312.984375 875.808594 1313.457031 877.007812 1313.898438 C 878.203125 1314.339844 879.414062 1314.753906 880.632812 1315.132812 C 881.855469 1315.515625 883.082031 1315.867188 884.320312 1316.1875 C 885.554688 1316.507812 886.800781 1316.796875 888.050781 1317.054688 C 889.304688 1317.3125 890.5625 1317.539062 891.824219 1317.734375 C 893.085938 1317.929688 894.355469 1318.09375 895.625 1318.226562 C 896.898438 1318.359375 898.171875 1318.457031 899.445312 1318.527344 C 900.722656 1318.59375 902 1318.632812 903.277344 1318.636719 C 904.554688 1318.640625 905.832031 1318.613281 907.109375 1318.554688 C 908.386719 1318.496094 909.660156 1318.402344 910.933594 1318.28125 C 912.207031 1318.15625 913.472656 1318.003906 914.738281 1317.816406 C 916.003906 1317.628906 917.261719 1317.414062 918.515625 1317.164062 C 919.769531 1316.914062 921.015625 1316.632812 922.253906 1316.320312 C 923.492188 1316.011719 924.726562 1315.667969 925.945312 1315.292969 C 927.167969 1314.921875 928.382812 1314.519531 929.582031 1314.085938 C 930.785156 1313.652344 931.976562 1313.1875 933.15625 1312.695312 C 934.335938 1312.199219 935.5 1311.679688 936.652344 1311.128906 C 937.804688 1310.574219 938.945312 1309.996094 940.070312 1309.386719 C 941.191406 1308.777344 942.300781 1308.144531 943.394531 1307.480469 C 944.484375 1306.816406 945.558594 1306.125 946.617188 1305.40625 C 947.675781 1304.691406 948.714844 1303.945312 949.734375 1303.175781 C 950.753906 1302.40625 951.753906 1301.613281 952.738281 1300.792969 C 953.71875 1299.972656 954.675781 1299.128906 955.617188 1298.261719 C 956.554688 1297.394531 957.46875 1296.503906 958.363281 1295.59375 C 959.257812 1294.679688 960.128906 1293.746094 960.976562 1292.789062 C 961.824219 1291.832031 962.648438 1290.851562 963.445312 1289.855469 C 964.242188 1288.859375 965.015625 1287.839844 965.765625 1286.804688 C 966.511719 1285.769531 967.234375 1284.714844 967.929688 1283.640625 C 968.625 1282.566406 969.292969 1281.480469 969.933594 1280.371094 C 970.574219 1279.265625 971.183594 1278.144531 971.769531 1277.007812 C 972.355469 1275.871094 972.910156 1274.722656 973.4375 1273.558594 C 973.964844 1272.394531 974.460938 1271.21875 974.929688 1270.027344 C 975.398438 1268.839844 975.835938 1267.636719 976.246094 1266.425781 C 976.652344 1265.214844 977.03125 1263.996094 977.378906 1262.765625 C 977.726562 1261.535156 978.042969 1260.296875 978.328125 1259.050781 C 978.613281 1257.804688 978.867188 1256.554688 979.089844 1255.296875 C 979.3125 1254.039062 979.503906 1252.773438 979.664062 1251.507812 C 979.824219 1250.238281 979.949219 1248.96875 980.046875 1247.691406 C 980.140625 1246.417969 980.207031 1245.140625 980.238281 1243.863281 C 980.269531 1242.585938 980.273438 1241.308594 980.238281 1240.03125 C 980.207031 1238.753906 980.144531 1237.476562 980.050781 1236.203125 C 979.953125 1234.929688 979.828125 1233.65625 979.667969 1232.390625 C 979.511719 1231.121094 979.320312 1229.859375 979.097656 1228.601562 C 978.875 1227.339844 978.621094 1226.089844 978.335938 1224.84375 C 978.054688 1223.597656 977.738281 1222.359375 977.390625 1221.128906 L 933.046875 1044.945312 C 963.410156 1039.242188 999.445312 1039.203125 1027.128906 1031.160156 L 1116.300781 1199.074219 C 1116.890625 1200.183594 1117.503906 1201.277344 1118.148438 1202.359375 C 1118.789062 1203.4375 1119.457031 1204.5 1120.152344 1205.546875 C 1120.847656 1206.59375 1121.566406 1207.621094 1122.308594 1208.632812 C 1123.054688 1209.640625 1123.824219 1210.632812 1124.617188 1211.605469 C 1125.410156 1212.582031 1126.226562 1213.535156 1127.070312 1214.464844 C 1127.910156 1215.398438 1128.773438 1216.3125 1129.65625 1217.203125 C 1130.542969 1218.09375 1131.449219 1218.960938 1132.375 1219.808594 C 1133.304688 1220.652344 1134.253906 1221.476562 1135.21875 1222.277344 C 1136.1875 1223.074219 1137.175781 1223.851562 1138.179688 1224.601562 C 1139.1875 1225.351562 1140.210938 1226.078125 1141.253906 1226.78125 C 1142.296875 1227.480469 1143.355469 1228.15625 1144.429688 1228.804688 C 1145.503906 1229.453125 1146.59375 1230.074219 1147.699219 1230.671875 C 1148.804688 1231.265625 1149.925781 1231.835938 1151.058594 1232.375 C 1152.191406 1232.914062 1153.335938 1233.425781 1154.496094 1233.910156 C 1155.65625 1234.394531 1156.824219 1234.851562 1158.003906 1235.277344 C 1159.1875 1235.703125 1160.375 1236.101562 1161.578125 1236.46875 C 1162.777344 1236.839844 1163.984375 1237.175781 1165.203125 1237.484375 C 1166.421875 1237.792969 1167.644531 1238.074219 1168.875 1238.320312 C 1170.105469 1238.570312 1171.339844 1238.789062 1172.582031 1238.976562 C 1173.824219 1239.164062 1175.070312 1239.324219 1176.320312 1239.449219 C 1177.570312 1239.578125 1178.820312 1239.671875 1180.074219 1239.738281 C 1181.328125 1239.804688 1182.582031 1239.839844 1183.839844 1239.84375 C 1185.09375 1239.847656 1186.347656 1239.820312 1187.601562 1239.761719 C 1188.859375 1239.703125 1190.109375 1239.617188 1191.359375 1239.496094 C 1192.609375 1239.378906 1193.855469 1239.226562 1195.097656 1239.046875 C 1196.339844 1238.867188 1197.578125 1238.65625 1198.8125 1238.414062 C 1200.042969 1238.175781 1201.269531 1237.902344 1202.488281 1237.601562 C 1203.707031 1237.300781 1204.917969 1236.96875 1206.121094 1236.609375 C 1207.324219 1236.25 1208.515625 1235.859375 1209.699219 1235.4375 C 1210.882812 1235.019531 1212.054688 1234.570312 1213.21875 1234.09375 C 1214.378906 1233.617188 1215.527344 1233.113281 1216.664062 1232.578125 C 1217.800781 1232.046875 1218.925781 1231.484375 1220.035156 1230.898438 C 1221.144531 1230.308594 1222.238281 1229.691406 1223.316406 1229.050781 C 1224.394531 1228.410156 1225.457031 1227.742188 1226.503906 1227.046875 C 1227.550781 1226.351562 1228.578125 1225.632812 1229.589844 1224.886719 C 1230.601562 1224.140625 1231.59375 1223.375 1232.566406 1222.578125 C 1233.539062 1221.785156 1234.492188 1220.96875 1235.425781 1220.128906 C 1236.359375 1219.289062 1237.269531 1218.425781 1238.160156 1217.539062 C 1239.050781 1216.65625 1239.917969 1215.75 1240.765625 1214.820312 C 1241.613281 1213.894531 1242.433594 1212.945312 1243.234375 1211.976562 C 1244.035156 1211.007812 1244.808594 1210.023438 1245.558594 1209.015625 C 1246.3125 1208.011719 1247.035156 1206.984375 1247.738281 1205.945312 C 1248.4375 1204.902344 1249.113281 1203.84375 1249.761719 1202.769531 C 1250.410156 1201.695312 1251.035156 1200.605469 1251.628906 1199.496094 C 1252.222656 1198.390625 1252.792969 1197.273438 1253.332031 1196.140625 C 1253.871094 1195.007812 1254.386719 1193.859375 1254.871094 1192.703125 C 1255.351562 1191.542969 1255.808594 1190.375 1256.234375 1189.191406 C 1256.664062 1188.011719 1257.058594 1186.820312 1257.429688 1185.621094 C 1257.796875 1184.421875 1258.136719 1183.210938 1258.445312 1181.996094 C 1258.753906 1180.777344 1259.03125 1179.554688 1259.28125 1178.324219 C 1259.527344 1177.09375 1259.746094 1175.855469 1259.9375 1174.613281 C 1260.125 1173.371094 1260.28125 1172.128906 1260.410156 1170.878906 C 1260.535156 1169.628906 1260.632812 1168.378906 1260.695312 1167.125 C 1260.761719 1165.871094 1260.796875 1164.613281 1260.800781 1163.359375 C 1260.804688 1162.105469 1260.777344 1160.847656 1260.71875 1159.59375 C 1260.664062 1158.339844 1260.574219 1157.085938 1260.457031 1155.839844 C 1260.335938 1154.589844 1260.1875 1153.339844 1260.007812 1152.097656 C 1259.824219 1150.855469 1259.613281 1149.617188 1259.375 1148.386719 C 1259.132812 1147.15625 1258.859375 1145.929688 1258.558594 1144.710938 C 1258.257812 1143.492188 1257.929688 1142.28125 1257.566406 1141.078125 C 1257.207031 1139.875 1256.816406 1138.683594 1256.398438 1137.5 C 1255.976562 1136.316406 1255.53125 1135.140625 1255.050781 1133.980469 C 1254.574219 1132.820312 1254.070312 1131.667969 1253.539062 1130.53125 C 1253.003906 1129.394531 1252.441406 1128.273438 1251.855469 1127.164062 L 1168.4375 969.917969 C 1188.230469 959.816406 1211.324219 951.667969 1229.082031 940.671875 L 1335.03125 1069.273438 C 1335.816406 1070.289062 1336.621094 1071.28125 1337.453125 1072.257812 C 1338.285156 1073.230469 1339.140625 1074.179688 1340.023438 1075.113281 C 1340.902344 1076.042969 1341.804688 1076.949219 1342.730469 1077.835938 C 1343.652344 1078.722656 1344.601562 1079.582031 1345.570312 1080.421875 C 1346.539062 1081.257812 1347.527344 1082.074219 1348.535156 1082.859375 C 1349.542969 1083.648438 1350.570312 1084.414062 1351.621094 1085.148438 C 1352.667969 1085.886719 1353.730469 1086.597656 1354.816406 1087.28125 C 1355.898438 1087.964844 1356.996094 1088.621094 1358.113281 1089.25 C 1359.226562 1089.878906 1360.359375 1090.476562 1361.503906 1091.050781 C 1362.648438 1091.621094 1363.808594 1092.164062 1364.980469 1092.679688 C 1366.15625 1093.191406 1367.339844 1093.675781 1368.539062 1094.132812 C 1369.734375 1094.585938 1370.941406 1095.011719 1372.160156 1095.40625 C 1373.378906 1095.800781 1374.605469 1096.164062 1375.84375 1096.496094 C 1377.078125 1096.828125 1378.324219 1097.128906 1379.574219 1097.398438 C 1380.828125 1097.671875 1382.085938 1097.910156 1383.347656 1098.117188 C 1384.613281 1098.324219 1385.878906 1098.5 1387.152344 1098.644531 C 1388.425781 1098.785156 1389.699219 1098.898438 1390.980469 1098.980469 C 1392.257812 1099.058594 1393.535156 1099.105469 1394.816406 1099.121094 C 1396.097656 1099.136719 1397.378906 1099.121094 1398.65625 1099.074219 C 1399.9375 1099.027344 1401.214844 1098.945312 1402.492188 1098.832031 C 1403.765625 1098.722656 1405.039062 1098.578125 1406.304688 1098.402344 C 1407.574219 1098.226562 1408.839844 1098.019531 1410.097656 1097.777344 C 1411.355469 1097.539062 1412.605469 1097.269531 1413.851562 1096.96875 C 1415.09375 1096.664062 1416.332031 1096.332031 1417.558594 1095.96875 C 1418.785156 1095.605469 1420.003906 1095.210938 1421.214844 1094.785156 C 1422.421875 1094.363281 1423.617188 1093.90625 1424.804688 1093.421875 C 1425.988281 1092.9375 1427.160156 1092.425781 1428.320312 1091.878906 C 1429.480469 1091.335938 1430.625 1090.765625 1431.757812 1090.164062 C 1432.886719 1089.5625 1434.003906 1088.933594 1435.101562 1088.277344 C 1436.203125 1087.621094 1437.285156 1086.9375 1438.347656 1086.226562 C 1439.414062 1085.515625 1440.460938 1084.78125 1441.488281 1084.015625 C 1442.519531 1083.253906 1443.527344 1082.464844 1444.515625 1081.652344 C 1445.503906 1080.835938 1446.472656 1080 1447.417969 1079.136719 C 1448.367188 1078.277344 1449.289062 1077.390625 1450.191406 1076.480469 C 1451.09375 1075.574219 1451.972656 1074.644531 1452.832031 1073.691406 C 1453.6875 1072.738281 1454.519531 1071.765625 1455.324219 1070.769531 C 1456.132812 1069.777344 1456.914062 1068.761719 1457.671875 1067.730469 C 1458.425781 1066.695312 1459.15625 1065.644531 1459.859375 1064.574219 C 1460.566406 1063.503906 1461.242188 1062.417969 1461.890625 1061.3125 C 1462.539062 1060.210938 1463.160156 1059.089844 1463.753906 1057.957031 C 1464.347656 1056.820312 1464.914062 1055.671875 1465.449219 1054.507812 C 1465.984375 1053.347656 1466.492188 1052.171875 1466.96875 1050.980469 C 1467.445312 1049.792969 1467.890625 1048.59375 1468.308594 1047.382812 C 1468.722656 1046.171875 1469.109375 1044.949219 1469.464844 1043.722656 C 1469.820312 1042.492188 1470.148438 1041.253906 1470.441406 1040.003906 C 1470.734375 1038.757812 1470.996094 1037.507812 1471.226562 1036.246094 C 1471.457031 1034.988281 1471.65625 1033.722656 1471.824219 1032.453125 C 1471.992188 1031.183594 1472.128906 1029.910156 1472.230469 1028.632812 C 1472.335938 1027.359375 1472.40625 1026.078125 1472.449219 1024.800781 C 1472.488281 1023.519531 1472.496094 1022.238281 1472.46875 1020.960938 C 1472.445312 1019.679688 1472.390625 1018.398438 1472.300781 1017.121094 C 1472.214844 1015.84375 1472.09375 1014.570312 1471.941406 1013.296875 C 1471.789062 1012.027344 1471.605469 1010.761719 1471.390625 1009.496094 C 1471.171875 1008.234375 1470.925781 1006.980469 1470.648438 1005.730469 C 1470.371094 1004.480469 1470.058594 1003.238281 1469.71875 1002.003906 C 1469.378906 1000.769531 1469.007812 999.542969 1468.605469 998.328125 C 1468.203125 997.113281 1467.769531 995.90625 1467.308594 994.710938 C 1466.84375 993.519531 1466.351562 992.335938 1465.832031 991.167969 C 1465.308594 989.996094 1464.757812 988.839844 1464.179688 987.699219 C 1463.601562 986.558594 1462.992188 985.429688 1462.355469 984.320312 C 1461.722656 983.207031 1461.058594 982.113281 1460.367188 981.035156 C 1459.675781 979.957031 1458.957031 978.894531 1458.214844 977.855469 C 1457.472656 976.8125 1456.703125 975.789062 1455.90625 974.785156 C 1455.113281 973.78125 1454.292969 972.796875 1453.449219 971.835938 L 1350.613281 846.949219 C 1412.046875 788.125 1459.125 729.640625 1479.695312 683.949219 C 1480.773438 681.542969 1481.722656 679.09375 1482.546875 676.59375 C 1483.371094 674.089844 1484.0625 671.554688 1484.628906 668.984375 C 1485.191406 666.410156 1485.621094 663.816406 1485.914062 661.199219 C 1486.210938 658.585938 1486.371094 655.960938 1486.398438 653.328125 C 1486.425781 650.695312 1486.3125 648.066406 1486.070312 645.445312 C 1485.824219 642.824219 1485.445312 640.222656 1484.933594 637.640625 C 1484.421875 635.058594 1483.777344 632.507812 1483 629.992188 C 1482.226562 627.476562 1481.324219 625.007812 1480.292969 622.582031 C 1451.421875 554.578125 1385.230469 456.257812 1266.476562 369.214844 C 1147.722656 282.167969 976.308594 210.769531 750.148438 210.769531 Z M 750.148438 364.179688 C 944.523438 364.179688 1080.828125 423.449219 1175.75 493.023438 C 1252.652344 549.390625 1295.355469 609.359375 1319.453125 651.347656 C 1295.5 690.070312 1253.5625 745.082031 1177.664062 797.207031 C 1082.785156 862.375 945.546875 918.261719 750.148438 918.261719 C 554.6875 918.261719 417.296875 862.375 322.394531 797.207031 C 246.410156 745.035156 204.511719 689.921875 180.609375 651.226562 C 204.71875 609.230469 247.453125 549.351562 324.3125 493.023438 C 419.234375 423.449219 555.679688 364.179688 750.148438 364.179688 Z M 750.148438 364.179688 " fill-opacity="1" fill-rule="nonzero"/></g><g transform="matrix(1, 0, 0, 1, 468, 128)"><g clip-path="url(#88d385e260)"><g fill="#b30505" fill-opacity="1"><g transform="translate(15.271767, 842.171469)"><g><path d="M 234.035156 -291.367188 L 10.976562 -642.351562 L 98.511719 -642.351562 L 247.269531 -401.792969 L 267.164062 -369.347656 L 269.324219 -369.347656 L 288.597656 -401.167969 L 436.1875 -642.351562 L 522.285156 -642.351562 L 303.183594 -291.726562 Z M 231.441406 0 L 231.441406 -329.945312 L 305.597656 -329.945312 L 305.597656 0 Z M 231.441406 0 "/></g></g></g></g></g></svg>